<svg width="88" height="16" viewBox="0 0 88 16" fill="none" xmlns="http://www.w3.org/2000/svg"><g id="logo"><path fill-rule="evenodd" clip-rule="evenodd" d="M38.4216 15.3966C39.4203 15.7989 40.5022 16 41.6674 16C42.8325 16 43.9144 15.7989 44.9131 15.3966C45.9118 14.9944 46.7788 14.4326 47.5139 13.7113C48.2629 12.9762 48.8455 12.1231 49.2616 11.1521C49.6778 10.1812 49.8858 9.127 49.8858 7.98959C49.8858 6.85219 49.6778 5.798 49.2616 4.82705C48.8594 3.85609 48.2837 3.00997 47.5347 2.28869C46.7996 1.5674 45.9326 1.00563 44.9339 0.60338C43.9352 0.201126 42.8464 0 41.6674 0C40.4883 0 39.3995 0.201126 38.4008 0.60338C37.4021 1.00563 36.5282 1.5674 35.7792 2.28869C35.044 3.00997 34.4684 3.85609 34.0523 4.82705C33.65 5.798 33.4489 6.85219 33.4489 7.98959C33.4489 9.127 33.657 10.1812 34.0731 11.1521C34.4892 12.1231 35.0648 12.9762 35.8 13.7113C36.549 14.4326 37.4229 14.9944 38.4216 15.3966ZM43.6231 12.7126C43.0267 12.9623 42.3748 13.0871 41.6674 13.0871C40.9599 13.0871 40.3011 12.9623 39.6908 12.7126C39.0943 12.4629 38.5672 12.1162 38.1095 11.6723C37.6518 11.2146 37.298 10.6736 37.0484 10.0494C36.7987 9.42523 36.6739 8.73862 36.6739 7.98959C36.6739 7.24057 36.7987 6.5609 37.0484 5.95058C37.298 5.3264 37.6518 4.78543 38.1095 4.3277C38.5672 3.86996 39.0943 3.52319 39.6908 3.28739C40.3011 3.03771 40.9599 2.91287 41.6674 2.91287C42.3748 2.91287 43.0267 3.03771 43.6231 3.28739C44.2335 3.52319 44.7675 3.86996 45.2252 4.3277C45.683 4.78543 46.0367 5.3264 46.2863 5.95058C46.536 6.5609 46.6609 7.24057 46.6609 7.98959C46.6609 8.73862 46.536 9.42523 46.2863 10.0494C46.0367 10.6736 45.683 11.2146 45.2252 11.6723C44.7675 12.1162 44.2335 12.4629 43.6231 12.7126Z" fill="#2B2D30"></path><path fill-rule="evenodd" clip-rule="evenodd" d="M79.4314 16C78.2662 16 77.1843 15.7989 76.1856 15.3966C75.1869 14.9944 74.313 14.4326 73.564 13.7113C72.8288 12.9762 72.2532 12.1231 71.8371 11.1521C71.421 10.1812 71.2129 9.127 71.2129 7.98959C71.2129 6.85219 71.414 5.798 71.8163 4.82705C72.2324 3.85609 72.808 3.00997 73.5432 2.28869C74.2922 1.5674 75.1661 1.00563 76.1648 0.60338C77.1635 0.201126 78.2523 0 79.4314 0C80.6104 0 81.6992 0.201126 82.6979 0.60338C83.6966 1.00563 84.5636 1.5674 85.2987 2.28869C86.0477 3.00997 86.6234 3.85609 87.0256 4.82705C87.4418 5.798 87.6498 6.85219 87.6498 7.98959C87.6498 9.127 87.4418 10.1812 87.0256 11.1521C86.6095 12.1231 86.0269 12.9762 85.2779 13.7113C84.5428 14.4326 83.6758 14.9944 82.6771 15.3966C81.6784 15.7989 80.5965 16 79.4314 16ZM79.4314 13.0871C80.1388 13.0871 80.7907 12.9623 81.3871 12.7126C81.9975 12.4629 82.5315 12.1162 82.9892 11.6723C83.447 11.2146 83.8007 10.6736 84.0503 10.0494C84.3 9.42523 84.4249 8.73862 84.4249 7.98959C84.4249 7.24057 84.3 6.5609 84.0503 5.95058C83.8007 5.3264 83.447 4.78543 82.9892 4.3277C82.5315 3.86996 81.9975 3.52319 81.3871 3.28739C80.7907 3.03771 80.1388 2.91287 79.4314 2.91287C78.7239 2.91287 78.0651 3.03771 77.4548 3.28739C76.8583 3.52319 76.3312 3.86996 75.8735 4.3277C75.4158 4.78543 75.062 5.3264 74.8124 5.95058C74.5627 6.5609 74.4379 7.24057 74.4379 7.98959C74.4379 8.73862 74.5627 9.42523 74.8124 10.0494C75.062 10.6736 75.4158 11.2146 75.8735 11.6723C76.3312 12.1162 76.8583 12.4629 77.4548 12.7126C78.0651 12.9623 78.7239 13.0871 79.4314 13.0871Z" fill="#2B2D30"></path><path d="M52.4352 15.7502V0.249593H55.5562L60.6223 6.96812L65.5432 0.249593H68.6641V15.7502H65.4391V5.7618L60.7577 11.7971H60.3416L55.6602 5.54392V15.7502H52.4352Z" fill="#2B2D30"></path><path d="M23.4165 15.9998C22.1959 15.9998 21.107 15.7432 20.15 15.23C19.1929 14.7167 18.4369 14.0163 17.8821 13.1285C17.3411 12.2269 17.0706 11.2074 17.0706 10.07V0.249471H20.2956V9.86195C20.2956 10.4723 20.4274 11.0271 20.6909 11.5264C20.9683 12.0119 21.3429 12.3934 21.8145 12.6708C22.2861 12.9482 22.8201 13.0869 23.4165 13.0869L24.5541 13.0871C25.1505 13.0871 25.6846 12.9484 26.1562 12.6709C26.6278 12.3935 27.0023 12.0121 27.2797 11.5266C27.5433 11.0272 27.675 10.4724 27.675 9.86209V0.249612H30.9V10.0702C30.9 11.2076 30.6295 12.2271 30.0885 13.1287C29.5337 14.0164 28.7778 14.7169 27.8207 15.2301C26.8636 15.7433 25.7747 15.9999 24.5541 15.9999L23.4165 15.9998Z" fill="#2B2D30"></path><path fill-rule="evenodd" clip-rule="evenodd" d="M0.0498047 0.249593V15.7502H6.26162C7.93999 15.7502 9.39643 15.4173 10.6309 14.7515C11.8654 14.0857 12.8225 13.1703 13.5022 12.0051C14.1819 10.8261 14.5217 9.48756 14.5217 7.98951C14.5217 6.49146 14.1819 5.15987 13.5022 3.99472C12.8225 2.82957 11.8654 1.91409 10.6309 1.24829C9.39643 0.582493 7.93999 0.249593 6.26162 0.249593H0.0498047ZM6.34485 12.9414H3.27477V3.05844H6.34485C7.35742 3.05844 8.23128 3.25956 8.96643 3.66182C9.70159 4.06407 10.2703 4.63277 10.6725 5.36793C11.0887 6.10308 11.2967 6.97694 11.2967 7.98951C11.2967 8.98821 11.0887 9.86207 10.6725 10.6111C10.2703 11.3463 9.70159 11.9219 8.96643 12.338C8.23128 12.7403 7.35742 12.9414 6.34485 12.9414Z" fill="#2B2D30"></path></g></svg>